<?xml version="1.0" encoding="UTF-8"?>
<svg version="1.1" xmlns="http://www.w3.org/2000/svg" width="225" height="225">
<path d="M0 0 C6.65361794 4.91843427 9.44125178 10.81866604 12.08203125 18.5390625 C12.613125 18.26191406 13.14421875 17.98476563 13.69140625 17.69921875 C14.3978125 17.33699219 15.10421875 16.97476563 15.83203125 16.6015625 C16.528125 16.24191406 17.22421875 15.88226563 17.94140625 15.51171875 C24.82996396 12.38169892 31.12064558 12.91878064 38.08203125 15.4765625 C45.48323085 18.78885663 50.76384665 23.96726112 54.08203125 31.4140625 C56.81443979 40.41493767 55.1001848 48.26955898 51.08203125 56.5390625 C51.87867188 56.89097656 52.6753125 57.24289063 53.49609375 57.60546875 C62.68412388 61.88650955 68.12954406 66.07772631 72.08203125 75.5390625 C72.54124943 78.32111529 72.60675836 81.03548899 72.58203125 83.8515625 C72.57631104 84.6041333 72.57059082 85.3567041 72.56469727 86.13208008 C72.30603958 94.18878788 69.67138813 99.32527138 63.83203125 104.8515625 C59.97160134 107.9109319 55.65301935 109.7770036 51.08203125 111.5390625 C51.37078125 112.02632813 51.65953125 112.51359375 51.95703125 113.015625 C55.9920809 120.72144898 56.73798691 129.08027063 54.19921875 137.44921875 C50.62567865 145.29444088 45.02403798 150.25866842 37.08203125 153.5390625 C28.1872645 156.18345261 20.67602323 154.19620869 12.58203125 150.3515625 C12.08703125 150.0834375 11.59203125 149.8153125 11.08203125 149.5390625 C11.04078125 150.3434375 10.99953125 151.1478125 10.95703125 151.9765625 C8.96543671 160.08519742 4.08295811 165.12397844 -2.8671875 169.4453125 C-9.49247971 172.97880168 -18.81028259 172.73178908 -25.91796875 170.66796875 C-35.11645458 166.39123372 -39.36140216 159.76521465 -42.91796875 150.5390625 C-43.95244141 150.9721875 -43.95244141 150.9721875 -45.0078125 151.4140625 C-53.29967064 154.68985831 -59.45101196 155.98007549 -67.98046875 152.9765625 C-75.39186524 149.68004711 -81.32189647 144.90771867 -84.296875 137.19921875 C-86.18000898 129.1337204 -86.04318809 120.79944855 -81.91796875 113.5390625 C-81.58796875 112.8790625 -81.25796875 112.2190625 -80.91796875 111.5390625 C-81.55863281 111.31992188 -82.19929688 111.10078125 -82.859375 110.875 C-90.90011659 107.92712752 -96.41878367 104.57452647 -100.85546875 97.1015625 C-104.21478285 89.70214307 -104.34220238 81.31369595 -102.03125 73.56640625 C-98.85624276 66.57295177 -94.13297249 61.85268235 -87.16796875 58.6640625 C-83.91796875 57.5390625 -83.91796875 57.5390625 -80.91796875 57.5390625 C-81.35109375 56.82556641 -81.35109375 56.82556641 -81.79296875 56.09765625 C-85.9978399 48.1697221 -86.58871558 39.17228854 -84.03515625 30.5625 C-80.83165608 23.5402579 -76.28721611 19.38261294 -69.60546875 15.7265625 C-60.191491 12.69494255 -52.54249254 13.33984708 -43.62890625 17.64453125 C-43.06429687 17.93972656 -42.4996875 18.23492187 -41.91796875 18.5390625 C-41.83546875 17.6934375 -41.75296875 16.8478125 -41.66796875 15.9765625 C-40.03309725 8.48340147 -36.03695955 3.86297463 -29.91796875 -0.4609375 C-21.14634636 -5.94320149 -8.74379408 -5.1911746 0 0 Z " fill="#45C799" transform="translate(127.91796875,28.4609375)"/>
<path d="M0 0 C6.65361794 4.91843427 9.44125178 10.81866604 12.08203125 18.5390625 C12.613125 18.26191406 13.14421875 17.98476563 13.69140625 17.69921875 C14.3978125 17.33699219 15.10421875 16.97476563 15.83203125 16.6015625 C16.528125 16.24191406 17.22421875 15.88226563 17.94140625 15.51171875 C24.82996396 12.38169892 31.12064558 12.91878064 38.08203125 15.4765625 C45.48323085 18.78885663 50.76384665 23.96726112 54.08203125 31.4140625 C56.81443979 40.41493767 55.1001848 48.26955898 51.08203125 56.5390625 C51.87867188 56.89097656 52.6753125 57.24289063 53.49609375 57.60546875 C62.68412388 61.88650955 68.12954406 66.07772631 72.08203125 75.5390625 C72.54124943 78.32111529 72.60675836 81.03548899 72.58203125 83.8515625 C72.57631104 84.6041333 72.57059082 85.3567041 72.56469727 86.13208008 C72.33264098 93.36020353 70.38218926 98.00373883 65.4375 103.30078125 C61.70211328 106.78320724 57.9487335 109.00695253 53.08203125 110.5390625 C49.07351731 110.16366199 47.00727247 109.00198783 44.08203125 106.2890625 C43.40140625 105.66128906 42.72078125 105.03351563 42.01953125 104.38671875 C41.38015625 103.77699219 40.74078125 103.16726562 40.08203125 102.5390625 C39.54578125 102.04277344 39.00953125 101.54648438 38.45703125 101.03515625 C37.28368807 99.91848021 36.17501148 98.73450963 35.08203125 97.5390625 C35.08203125 96.8790625 35.08203125 96.2190625 35.08203125 95.5390625 C33.59703125 95.0440625 33.59703125 95.0440625 32.08203125 94.5390625 C30.39470848 92.55645824 28.72837068 90.5558283 27.08203125 88.5390625 C25.59703125 87.5490625 25.59703125 87.5490625 24.08203125 86.5390625 C24.08203125 85.8790625 24.08203125 85.2190625 24.08203125 84.5390625 C15.70559848 81.2965724 6.33100323 79.65858482 -2.44921875 82.30078125 C-5.57541667 83.77639333 -7.58892687 85.15694935 -9.85546875 87.7890625 C-13.14253956 90.57809228 -16.77959816 89.8573987 -20.91796875 89.5390625 C-20.91796875 87.2290625 -20.91796875 84.9190625 -20.91796875 82.5390625 C-21.45164063 82.88839844 -21.9853125 83.23773438 -22.53515625 83.59765625 C-29.78110192 88.02294833 -36.21129664 89.41923471 -44.60546875 87.8515625 C-54.6256914 85.20070995 -60.37695287 78.19349891 -67 70.67578125 C-68.4850665 69.02133853 -70.03343134 67.42359991 -71.60546875 65.8515625 C-74.2149633 63.24206795 -76.55544339 60.37409293 -78.91796875 57.5390625 C-66.70796875 57.5390625 -54.49796875 57.5390625 -41.91796875 57.5390625 C-42.03620042 45.43839136 -42.03620042 45.43839136 -42.18823242 33.33813477 C-42.19700799 31.80225252 -42.20464938 30.2663632 -42.2109375 28.73046875 C-42.2262854 27.95602417 -42.2416333 27.18157959 -42.25744629 26.38366699 C-42.26016881 20.59830018 -40.94823181 15.92548614 -38.91796875 10.5390625 C-38.67046875 9.6521875 -38.42296875 8.7653125 -38.16796875 7.8515625 C-35.54981031 3.00796939 -30.32569247 -1.05900265 -25.1875 -2.984375 C-16.51672633 -4.80508823 -7.70793534 -4.57618715 0 0 Z " fill="#FDAC03" transform="translate(127.91796875,28.4609375)"/>
<path d="M0 0 C1 2 1 2 0.45939636 3.84092712 C0.17397476 4.57009842 -0.11144684 5.29926971 -0.40551758 6.05053711 C-2.09061746 10.85412359 -2.47052307 15.13212929 -2.51171875 20.19140625 C-2.52966995 21.02212143 -2.54762115 21.85283661 -2.56611633 22.70872498 C-2.61970918 25.3266004 -2.65394879 27.94429904 -2.6875 30.5625 C-2.72071831 32.35223789 -2.75521206 34.14195259 -2.79101562 35.93164062 C-2.87777521 40.28777863 -2.93827618 44.64314997 -3 49 C-14.88 49.33 -26.76 49.66 -39 50 C-33.08619632 56.76105661 -33.08619632 56.76105661 -26.62890625 62.6328125 C-22.58314345 66.02853668 -19.24812619 69.85583899 -16 74 C-15.01 74.99 -15.01 74.99 -14 76 C-14.70769531 76.70511719 -15.41539063 77.41023438 -16.14453125 78.13671875 C-18.05180997 80.0426529 -19.94314768 81.96274343 -21.82421875 83.89453125 C-22.7786209 84.86721196 -23.73304812 85.83986808 -24.6875 86.8125 C-25.17283203 87.31458984 -25.65816406 87.81667969 -26.15820312 88.33398438 C-27.40124606 89.59417273 -28.69699892 90.80191044 -30 92 C-30.66 92 -31.32 92 -32 92 C-32.66 93.32 -33.32 94.64 -34 96 C-34.66 96 -35.32 96 -36 96 C-37.20628008 98.33214148 -38.1654738 100.49642139 -39 103 C-47.38366276 101.2431295 -54.23622033 98.95579966 -59.56640625 91.9375 C-64.51587069 84.26653516 -64.78308072 76.92892039 -64 68 C-61.98271781 61.0525887 -58.06256681 55.90842073 -52 52 C-48.6734488 50.19982929 -45.84947627 49 -42 49 C-42.433125 48.28650391 -42.433125 48.28650391 -42.875 47.55859375 C-47.07987115 39.6306596 -47.67074683 30.63322604 -45.1171875 22.0234375 C-41.91368733 15.0011954 -37.36924736 10.84355044 -30.6875 7.1875 C-21.27352225 4.15588005 -13.62452379 4.80078458 -4.7109375 9.10546875 C-4.14632812 9.40066406 -3.58171875 9.69585937 -3 10 C-2.814375 8.63875 -2.814375 8.63875 -2.625 7.25 C-2.07890323 4.41029677 -1.42736197 2.47409409 0 0 Z " fill="#FC7D7B" transform="translate(89,37)"/>
<path d="M0 0 C6.35909843 5.35181724 10.32575263 11.33290822 11.30859375 19.59375 C11.62875127 26.50139108 10.00113564 31.82355568 7 38 C7.79664063 38.35191406 8.59328125 38.70382813 9.4140625 39.06640625 C18.60209263 43.34744705 24.04751281 47.53866381 28 57 C28.45921818 59.78205279 28.52472711 62.49642649 28.5 65.3125 C28.49427979 66.0650708 28.48855957 66.8176416 28.48266602 67.59301758 C28.25060973 74.82114103 26.30015801 79.46467633 21.35546875 84.76171875 C17.62008203 88.24414474 13.86670225 90.46789003 9 92 C4.99148606 91.62459949 2.92524122 90.46292533 0 87.75 C-0.680625 87.12222656 -1.36125 86.49445313 -2.0625 85.84765625 C-2.701875 85.23792969 -3.34125 84.62820312 -4 84 C-4.804375 83.25556641 -4.804375 83.25556641 -5.625 82.49609375 C-6.79834318 81.37941771 -7.90701977 80.19544713 -9 79 C-9 78.34 -9 77.68 -9 77 C-10.485 76.505 -10.485 76.505 -12 76 C-13.68732277 74.01739574 -15.35366057 72.0167658 -17 70 C-17.99 69.34 -18.98 68.68 -20 68 C-20 67.34 -20 66.68 -20 66 C-20.99 65.67 -21.98 65.34 -23 65 C-21.02 64.505 -21.02 64.505 -19 64 C-19 63.34 -19 62.68 -19 62 C-17.64453125 60.66796875 -17.64453125 60.66796875 -15.8125 59.1875 C-11.89066409 55.92984598 -8.24488931 52.6183561 -5.125 48.5625 C-3 46 -3 46 4 40 C-14.315 39.505 -14.315 39.505 -33 39 C-33.13785176 33.65952076 -33.25723378 28.32521702 -33.32958984 22.984375 C-33.35974788 21.16840701 -33.40068198 19.35258451 -33.45263672 17.53710938 C-33.52550124 14.92541645 -33.55946367 12.31564942 -33.5859375 9.703125 C-33.61690521 8.89256653 -33.64787292 8.08200806 -33.67977905 7.24688721 C-33.68111139 5.01110153 -33.61543793 3.15026301 -33 1 C-22.93657651 -7.78180208 -10.81993495 -6.24506313 0 0 Z " fill="#EEE913" transform="translate(172,47)"/>
<path d="M0 0 C0.70467407 0.00100708 1.40934814 0.00201416 2.13537598 0.00305176 C4.76344433 0.00827711 7.39148945 0.02223839 10.01953125 0.03515625 C15.89765625 0.05578125 21.77578125 0.07640625 27.83203125 0.09765625 C28.16203125 12.30765625 28.49203125 24.51765625 28.83203125 37.09765625 C37.08203125 28.84765625 45.33203125 20.59765625 53.83203125 12.09765625 C57.57446049 13.96887087 58.9106221 15.28723575 61.4140625 18.453125 C63.43010795 20.79129341 65.75094442 22.67570531 68.1171875 24.6484375 C70.52070519 26.67965632 72.70448422 28.77669585 74.83203125 31.09765625 C74.83203125 31.75765625 74.83203125 32.41765625 74.83203125 33.09765625 C76.48203125 33.75765625 78.13203125 34.41765625 79.83203125 35.09765625 C81.17424408 40.46650756 80.80068664 43.37125932 78.05078125 48.18359375 C73.81019815 54.84348387 69.51336246 58.74337811 61.83203125 61.09765625 C52.58578395 62.33048922 44.46448237 61.75397556 36.83203125 56.09765625 C31.77698029 51.67859868 29.21671238 46.28379965 26.83203125 40.09765625 C26.14238281 40.38640625 25.45273438 40.67515625 24.7421875 40.97265625 C16.45032936 44.24845206 10.29898804 45.53866924 1.76953125 42.53515625 C-5.64186524 39.23864086 -11.57189647 34.46631242 -14.546875 26.7578125 C-16.43000898 18.69231415 -16.29318809 10.3580423 -12.16796875 3.09765625 C-11.83796875 2.43765625 -11.50796875 1.77765625 -11.16796875 1.09765625 C-7.40976174 -0.15507942 -3.9130766 -0.02627337 0 0 Z " fill="#AA87C4" transform="translate(58.16796875,138.90234375)"/>
<path d="M0 0 C0 2.31 0 4.62 0 7 C2.97 7 5.94 7 9 7 C9.33 6.01 9.66 5.02 10 4 C11.14224223 6.28448446 12.27290907 8.57062806 13.375 10.875 C18.18734128 20.12950247 22.55900052 23.27950026 32 28 C32 40.21 32 52.42 32 65 C31.67 64.34 31.34 63.68 31 63 C29.35636866 62.27840576 27.68949614 61.60648579 26 61 C26 60.34 26 59.68 26 59 C25.40058594 58.73832031 24.80117187 58.47664063 24.18359375 58.20703125 C21.86938236 56.92779812 20.70340555 55.73749558 19.0625 53.6875 C16.5275607 50.60981552 13.85968781 47.78443287 11 45 C9.66666667 43.66666667 8.33333333 42.33333333 7 41 C3.09405504 42.58118247 0.49841879 45.26040748 -2.38671875 48.2265625 C-2.88919632 48.73424164 -3.39167389 49.24192078 -3.90937805 49.76498413 C-5.50693053 51.38029323 -7.0976043 53.00215684 -8.6875 54.625 C-10.28898799 56.2540709 -11.89190416 57.88167047 -13.49775696 59.50643921 C-14.49545844 60.51643863 -15.49047524 61.52909816 -16.48258972 62.54458618 C-17.63632342 63.71515806 -18.81562422 64.86044133 -20 66 C-20.33 66 -20.66 66 -21 66 C-21 53.46 -21 40.92 -21 28 C-33.21 28 -45.42 28 -58 28 C-53.54276827 21.31415241 -53.54276827 21.31415241 -50.4375 18.8125 C-46.24715489 15.30870861 -42.45655245 11.49578432 -38.68139648 7.5559082 C-37.4902627 6.33443523 -36.24872447 5.16253305 -35 4 C-34.34 4 -33.68 4 -33 4 C-32.67 3.01 -32.34 2.02 -32 1 C-31.030625 1.474375 -30.06125 1.94875 -29.0625 2.4375 C-21.68349301 5.55539028 -14.56137907 5.55471836 -7 3 C-1.57692308 0 -1.57692308 0 0 0 Z " fill="#1D7A97" transform="translate(107,111)"/>
<path d="M0 0 C0.99 0.33 1.98 0.66 3 1 C3 1.66 3 2.32 3 3 C3.5775 3.226875 4.155 3.45375 4.75 3.6875 C7.58972308 5.34400513 8.95224536 7.42567988 11 10 C12.73046149 11.57964145 14.5083956 13.08041509 16.31640625 14.5703125 C17.98009665 15.98309832 19.54889956 17.36806333 21 19 C21 19.66 21 20.32 21 21 C21.86625 21.309375 21.86625 21.309375 22.75 21.625 C26.88547197 24.15223287 28.60550484 27.93486307 30.25 32.375 C31.98484748 40.76009615 31.27938736 48.90761801 26.55859375 56.23828125 C21.39103639 62.60480783 15.20851087 66.81757914 7 67.9375 C-2.08093821 68.41618512 -9.64100558 65.91191807 -16.4375 59.8125 C-19.3508889 56.61487804 -22.22249206 53.38253716 -25.08203125 50.13671875 C-26.56709775 48.48227603 -28.11546259 46.88453741 -29.6875 45.3125 C-32.29699455 42.70300545 -34.63747464 39.83503043 -37 37 C-24.79 37 -12.58 37 0 37 C0 24.79 0 12.58 0 0 Z " fill="#E30216" transform="translate(86,49)"/>
<path d="M0 0 C0.33 0.99 0.66 1.98 1 3 C1.5775 3.268125 2.155 3.53625 2.75 3.8125 C5.38673638 5.20411087 6.75444209 7.04427138 8.58203125 9.35546875 C10.60236472 11.69861033 12.92863338 13.58656772 15.30078125 15.5625 C19.3603926 18.99683788 22.72889157 22.82651683 26 27 C26.66 27.66 27.32 28.32 28 29 C27.29230469 29.70511719 26.58460937 30.41023438 25.85546875 31.13671875 C23.94819003 33.0426529 22.05685232 34.96274343 20.17578125 36.89453125 C19.2213791 37.86721196 18.26695188 38.83986808 17.3125 39.8125 C16.82716797 40.31458984 16.34183594 40.81667969 15.84179688 41.33398438 C14.59875394 42.59417273 13.30300108 43.80191044 12 45 C11.34 45 10.68 45 10 45 C9.34 46.32 8.68 47.64 8 49 C7.34 49 6.68 49 6 49 C4.79371992 51.33214148 3.8345262 53.49642139 3 56 C-5.38366276 54.2431295 -12.23622033 51.95579966 -17.56640625 44.9375 C-22.51587069 37.26653516 -22.78308072 29.92892039 -22 21 C-19.98271781 14.0525887 -16.06256681 8.90842073 -10 5 C-6.6734488 3.19982929 -3.84947627 2 0 2 C0 1.34 0 0.68 0 0 Z " fill="#E076A9" transform="translate(47,84)"/>
<path d="M0 0 C0.66 0.33 1.32 0.66 2 1 C1.67 1.66 1.34 2.32 1 3 C1.79664063 3.35191406 2.59328125 3.70382813 3.4140625 4.06640625 C12.60209263 8.34744705 18.04751281 12.53866381 22 22 C22.45921818 24.78205279 22.52472711 27.49642649 22.5 30.3125 C22.49427979 31.0650708 22.48855957 31.8176416 22.48266602 32.59301758 C22.25060973 39.82114103 20.30015801 44.46467633 15.35546875 49.76171875 C11.62008203 53.24414474 7.86670225 55.46789003 3 57 C-1.00851394 56.62459949 -3.07475878 55.46292533 -6 52.75 C-6.680625 52.12222656 -7.36125 51.49445313 -8.0625 50.84765625 C-8.701875 50.23792969 -9.34125 49.62820312 -10 49 C-10.53625 48.50371094 -11.0725 48.00742188 -11.625 47.49609375 C-12.79834318 46.37941771 -13.90701977 45.19544713 -15 44 C-15 43.34 -15 42.68 -15 42 C-15.99 41.67 -16.98 41.34 -18 41 C-19.68732277 39.01739574 -21.35366057 37.0167658 -23 35 C-23.99 34.34 -24.98 33.68 -26 33 C-26 32.34 -26 31.68 -26 31 C-26.99 30.67 -27.98 30.34 -29 30 C-27.68 29.67 -26.36 29.34 -25 29 C-25 28.34 -25 27.68 -25 27 C-23.64453125 25.66796875 -23.64453125 25.66796875 -21.8125 24.1875 C-17.89066409 20.92984598 -14.24488931 17.6183561 -11.125 13.5625 C-9.28867463 11.34810764 -7.59161338 9.79069387 -5.375 8 C-2.48555699 5.61172376 -0.98358524 3.71576646 0 0 Z " fill="#A2DC4E" transform="translate(178,82)"/>
<path d="M0 0 C3.47288265 1.55000236 5.21827126 3.3662215 7.58203125 6.35546875 C9.5980767 8.69363716 11.91891317 10.57804906 14.28515625 12.55078125 C16.68867394 14.58200007 18.87245297 16.6790396 21 19 C21 19.66 21 20.32 21 21 C23.475 21.99 23.475 21.99 26 23 C27.34221283 28.36885131 26.96865539 31.27360307 24.21875 36.0859375 C19.9781669 42.74582762 15.68133121 46.64572186 8 49 C-1.26237356 50.23498314 -9.34773961 49.6422858 -17 44 C-22.75787345 39.19136382 -24.842136 33.01940467 -27 26 C-26.30777344 25.41496704 -26.30777344 25.41496704 -25.6015625 24.81811523 C-19.79230771 19.83045095 -14.38512266 14.50139117 -9 9.0625 C-8.12988281 8.18787109 -7.25976562 7.31324219 -6.36328125 6.41210938 C-4.23986451 4.27702551 -2.11883622 2.13962795 0 0 Z " fill="#6FACDE" transform="translate(112,151)"/>
<path d="M0 0 C3.95113213 2.31799751 6.42527145 5.41676983 9.23828125 8.953125 C10.85387202 11.27799888 10.85387202 11.27799888 13.05078125 12.203125 C13.05078125 12.863125 13.05078125 13.523125 13.05078125 14.203125 C13.64761719 14.4609375 14.24445313 14.71875 14.859375 14.984375 C17.23163942 16.30370922 18.4349125 17.5906182 20.11328125 19.703125 C22.05950311 22.13977412 23.38471307 23.42574621 26.05078125 25.203125 C26.05078125 25.863125 26.05078125 26.523125 26.05078125 27.203125 C20.822189 27.32772483 15.59448106 27.41792998 10.36474609 27.4777832 C8.58985316 27.50276127 6.81506132 27.53675626 5.04052734 27.58032227 C-6.77157307 27.86282889 -15.11961552 27.51503862 -24.76171875 20.015625 C-28.19998323 15.59499924 -32.24427767 10.30124371 -31.69140625 4.49609375 C-30.72801605 1.51972509 -29.62805442 0.76577914 -26.94921875 -0.796875 C-18.54384369 -4.80013799 -8.29772128 -3.85687863 0 0 Z " fill="#06A13E" transform="translate(149.94921875,111.796875)"/>
<path d="M0 0 C0.99 0.33 1.98 0.66 3 1 C3 1.66 3 2.32 3 3 C3.5775 3.226875 4.155 3.45375 4.75 3.6875 C7.58972308 5.34400513 8.95224536 7.42567988 11 10 C12.73046149 11.57964145 14.5083956 13.08041509 16.31640625 14.5703125 C17.98009665 15.98309832 19.54889956 17.36806333 21 19 C21 19.66 21 20.32 21 21 C21.86625 21.309375 21.86625 21.309375 22.75 21.625 C26.88547197 24.15223287 28.60550484 27.93486307 30.25 32.375 C31.84479172 40.08315998 31.19043292 46.78938788 28 54 C26.20388685 56.56391724 24.2369151 58.81375936 22 61 C19.70986347 57.5647952 19.82157027 56.014669 20 52 C19.34 52 18.68 52 18 52 C16.703125 50.390625 16.703125 50.390625 15.25 48.25 C10.98397127 42.38938772 6.91867708 40.30622569 0 38 C0 25.46 0 12.92 0 0 Z " fill="#FC3403" transform="translate(86,49)"/>
<path d="M0 0 C1.2857341 0.00424484 1.2857341 0.00424484 2.59744263 0.00857544 C5.31771182 0.01971251 8.03764391 0.0448049 10.7578125 0.0703125 C12.60937022 0.08035068 14.46093314 0.08947506 16.3125 0.09765625 C20.8360661 0.11963062 25.35938227 0.1541155 29.8828125 0.1953125 C29.2228125 1.1853125 28.5628125 2.1753125 27.8828125 3.1953125 C27.2228125 3.1953125 26.5628125 3.1953125 25.8828125 3.1953125 C25.6559375 3.7521875 25.4290625 4.3090625 25.1953125 4.8828125 C23.51562415 7.8422634 21.34147965 9.85658034 18.8828125 12.1953125 C18.3259375 12.7934375 17.7690625 13.3915625 17.1953125 14.0078125 C15.8828125 15.1953125 15.8828125 15.1953125 13.8828125 15.1953125 C13.6353125 15.7728125 13.3878125 16.3503125 13.1328125 16.9453125 C11.69981262 19.52471229 10.09856574 21.25652842 7.8828125 23.1953125 C7.2228125 23.1953125 6.5628125 23.1953125 5.8828125 23.1953125 C5.8828125 23.8553125 5.8828125 24.5153125 5.8828125 25.1953125 C0.49069886 26.44929242 0.49069886 26.44929242 -2.3984375 25.2421875 C-8.23748269 22.99381953 -15.814156 23.1074288 -21.73828125 25.05859375 C-24.10437802 26.20886341 -24.10437802 26.20886341 -27.1171875 28.1953125 C-27.7771875 28.5253125 -28.4371875 28.8553125 -29.1171875 29.1953125 C-29.52087045 22.73638536 -28.7087137 18.13422672 -26.1171875 12.1953125 C-25.4571875 12.1953125 -24.7971875 12.1953125 -24.1171875 12.1953125 C-24.02824219 11.59976563 -23.93929687 11.00421875 -23.84765625 10.390625 C-22.9238182 7.61417053 -21.77769539 6.77876776 -19.4296875 5.0703125 C-18.76582031 4.57273437 -18.10195312 4.07515625 -17.41796875 3.5625 C-11.70853038 0.16979469 -6.44596338 -0.08093678 0 0 Z " fill="#8BC003" transform="translate(147.1171875,85.8046875)"/>
<path d="M0 0 C0.66065967 7.13512446 -0.99130739 12.0547409 -5 18 C-9.57179051 23.10739777 -15.10866121 27.38645986 -22.09197998 28.2624054 C-24.39918747 28.34472303 -26.68787711 28.33792062 -28.99609375 28.29296875 C-29.82963882 28.28872391 -30.6631839 28.28447906 -31.52198792 28.28010559 C-34.16083311 28.26343314 -36.79888916 28.22580358 -39.4375 28.1875 C-41.23631703 28.17243833 -43.03514613 28.15875253 -44.83398438 28.14648438 C-49.22295615 28.11356728 -53.61134469 28.06186567 -58 28 C-55.70264261 24.48557429 -53.71562411 21.45340776 -50.4375 18.8125 C-46.24715489 15.30870861 -42.45655245 11.49578432 -38.68139648 7.5559082 C-37.4902627 6.33443523 -36.24872447 5.16253305 -35 4 C-34.34 4 -33.68 4 -33 4 C-32.67 3.01 -32.34 2.02 -32 1 C-31.030625 1.474375 -30.06125 1.94875 -29.0625 2.4375 C-21.68349301 5.55539028 -14.56137907 5.55471836 -7 3 C-1.57692308 0 -1.57692308 0 0 0 Z " fill="#A03174" transform="translate(107,111)"/>
<path d="M0 0 C0 11.88 0 23.76 0 36 C-4.95 38.475 -4.95 38.475 -10 41 C-10.99 41.99 -11.98 42.98 -13 44 C-13.66 44 -14.32 44 -15 44 C-15.33 45.32 -15.66 46.64 -16 48 C-16.66 48 -17.32 48 -18 48 C-19.27384676 52.58810293 -19.76618116 57.29416473 -20.40234375 62.00390625 C-21 65 -21 65 -23 68 C-25.1640625 68.29296875 -25.1640625 68.29296875 -27.625 68.1875 C-28.44226563 68.16042969 -29.25953125 68.13335937 -30.1015625 68.10546875 C-30.72804688 68.07066406 -31.35453125 68.03585938 -32 68 C-32.73309091 61.03563636 -32.73309091 61.03563636 -30.76953125 58.26171875 C-30.24746094 57.72160156 -29.72539063 57.18148437 -29.1875 56.625 C-24.47476211 51.73400252 -22.94059277 45.56819659 -22.625 38.875 C-23.12323031 33.72662017 -24.68162353 29.63675294 -27 25 C-26.34 24.01 -25.68 23.02 -25 22 C-24.01 22 -23.02 22 -22 22 C-22 21.34 -22 20.68 -22 20 C-21.01 20 -20.02 20 -19 20 C-18.67 18.35 -18.34 16.7 -18 15 C-17.360625 14.896875 -16.72125 14.79375 -16.0625 14.6875 C-15.381875 14.460625 -14.70125 14.23375 -14 14 C-13.67 13.01 -13.34 12.02 -13 11 C-12.34 11 -11.68 11 -11 11 C-10.75378906 10.41734375 -10.50757813 9.8346875 -10.25390625 9.234375 C-8.80519708 6.65287455 -7.18806717 5.16155251 -4.9375 3.25 C-4.22464844 2.63640625 -3.51179688 2.0228125 -2.77734375 1.390625 C-1 0 -1 0 0 0 Z " fill="#E9A203" transform="translate(139,50)"/>
<path d="M0 0 C1.32 0 2.64 0 4 0 C5.25502138 5.52209408 5.25502138 5.52209408 4.0390625 7.80078125 C2.64058029 10.76072669 2.73492229 13.1769452 2.75 16.4375 C2.74484375 17.54996094 2.7396875 18.66242188 2.734375 19.80859375 C2.99791271 22.97492184 3.78039537 25.10101916 5 28 C5 29.32 5 30.64 5 32 C5.66 32.33 6.32 32.66 7 33 C6.53779053 33.39002197 6.07558105 33.78004395 5.59936523 34.18188477 C-0.20220939 39.15865204 -5.57639142 44.49359438 -10.9375 49.9375 C-12.63184327 51.65718872 -14.32833277 53.37476647 -16.02734375 55.08984375 C-16.76718506 55.84128662 -17.50702637 56.59272949 -18.26928711 57.36694336 C-20 59 -20 59 -21 59 C-21 46.46 -21 33.92 -21 21 C-17.37 19.02 -13.74 17.04 -10 15 C-5.32982057 10.41473292 -2.70363656 5.92720323 0 0 Z " fill="#5B53A5" transform="translate(107,118)"/>
<path d="M0 0 C11.88 0 23.76 0 36 0 C36 12.54 36 25.08 36 38 C35.01 38.33 34.02 38.66 33 39 C30.18495557 36.18495557 30.62942656 33.43230338 30.55078125 29.65625 C30.52904343 28.93135376 30.5073056 28.20645752 30.48490906 27.45959473 C30.44098278 25.92647591 30.40178497 24.39321545 30.36694336 22.85986328 C30.31270714 20.50897868 30.24252529 18.15897538 30.16992188 15.80859375 C30.12926336 14.32033802 30.089519 12.83205697 30.05078125 11.34375 C30.03002029 10.63851196 30.00925934 9.93327393 29.98786926 9.20666504 C29.88411702 4.23176596 29.88411702 4.23176596 31 2 C30.27409668 2.00523682 29.54819336 2.01047363 28.80029297 2.01586914 C25.49187088 2.03673497 22.18346269 2.04969069 18.875 2.0625 C17.16183594 2.07506836 17.16183594 2.07506836 15.4140625 2.08789062 C14.30546875 2.09111328 13.196875 2.09433594 12.0546875 2.09765625 C10.53077393 2.10551147 10.53077393 2.10551147 8.97607422 2.11352539 C5.90885274 1.99652309 3.01366866 1.56776417 0 1 C0 0.67 0 0.34 0 0 Z " fill="#A880BE" transform="translate(50,139)"/>
<path d="M0 0 C6.04942966 4.74144487 6.04942966 4.74144487 8 7 C8 7.66 8 8.32 8 9 C8.5775 9.20625 9.155 9.4125 9.75 9.625 C13.88547197 12.15223287 15.60550484 15.93486307 17.25 20.375 C18.84479172 28.08315998 18.19043292 34.78938788 15 42 C13.20388685 44.56391724 11.2369151 46.81375936 9 49 C8.34 48.01 7.68 47.02 7 46 C7.33 45.01 7.66 44.02 8 43 C9.32 43.33 10.64 43.66 12 44 C11.51515724 39.35413108 11.51515724 39.35413108 10 35 C9.46027766 27.770231 10.29503213 21.01776954 12 14 C11.34 14 10.68 14 10 14 C9.67 13.01 9.34 12.02 9 11 C8.34 10.67 7.68 10.34 7 10 C7 9.34 7 8.68 7 8 C6.21625 7.731875 5.4325 7.46375 4.625 7.1875 C2 6 2 6 0 3 C0 2.01 0 1.02 0 0 Z " fill="#E43502" transform="translate(99,61)"/>
<path d="M0 0 C-2.06736324 5.95887053 -5.0227484 10.05417886 -10 14 C-10.66 14 -11.32 14 -12 14 C-12 14.66 -12 15.32 -12 16 C-14.90600261 17.25664978 -16.79604584 18 -20 18 C-19.47731534 15.23723823 -18.89130413 12.6739124 -18 10 C-17.34 10 -16.68 10 -16 10 C-15.91363281 9.40574219 -15.82726562 8.81148437 -15.73828125 8.19921875 C-14.79418258 5.38690365 -13.57353177 4.53451551 -11.1875 2.8125 C-10.50042969 2.30332031 -9.81335938 1.79414062 -9.10546875 1.26953125 C-5.62849169 -0.82697626 -3.89649891 -1.29883297 0 0 Z " fill="#8A8C02" transform="translate(139,88)"/>
<path d="M0 0 C0.66 0 1.32 0 2 0 C5.66618886 8.01590445 5.9796856 16.55402475 2.94921875 24.890625 C2.47935547 25.93476563 2.47935547 25.93476563 2 27 C1.34 27 0.68 27 0 27 C-3.38195583 19.81334386 -4.75264392 11.59032976 -2.3203125 3.83203125 C-1.5 2.1875 -1.5 2.1875 0 0 Z " fill="#234077" transform="translate(112,122)"/>
<path d="M0 0 C-0.40121863 6.4194981 -5.06318152 11.24764042 -9.625 15.375 C-12.94416559 17.64600804 -14.93005875 19 -19 19 C-15.31179775 7.08426966 -15.31179775 7.08426966 -10 4 C-9.34 4 -8.68 4 -8 4 C-8 3.34 -8 2.68 -8 2 C-2.25 0 -2.25 0 0 0 Z " fill="#561F5F" transform="translate(106,119)"/>
<path d="M0 0 C5.29313319 1.51232377 10.39577756 3.37490873 13.375 8.25 C13.58125 8.8275 13.7875 9.405 14 10 C14.66 10 15.32 10 16 10 C16.99 12.97 17.98 15.94 19 19 C10.59391359 16.70743098 6.14784061 13.76651954 1.625 6.3125 C0 3 0 3 0 0 Z " fill="#02673A" transform="translate(119,119)"/>
<path d="M0 0 C-3.71332141 3.55187265 -7.99819233 4.60221264 -13 5 C-22.77511244 4.11244378 -22.77511244 4.11244378 -27 2 C-27 1.34 -27 0.68 -27 0 C-18.19006153 -4.80542098 -8.95093791 -4.13120211 0 0 Z " fill="#A00213" transform="translate(104,112)"/>
<path d="M0 0 C0.86625 0.495 1.7325 0.99 2.625 1.5 C2.625 2.16 2.625 2.82 2.625 3.5 C-4.94166141 5.87385456 -14.79783836 7.70360714 -22.1875 4 C-22.909375 3.505 -23.63125 3.01 -24.375 2.5 C-23.375 0.5 -23.375 0.5 -21.2421875 -0.60546875 C-14.72595749 -2.63846149 -6.33051881 -2.73717104 0 0 Z " fill="#048D0A" transform="translate(146.375,110.5)"/>
<path d="M0 0 C5.52107549 0.13802689 8.35799654 2.4771596 12.2265625 6.09375 C14.51978728 8.55871408 15.93429178 10.80287535 17 14 C16.55859375 16.17578125 16.55859375 16.17578125 16 18 C15.44570312 17.71125 14.89140625 17.4225 14.3203125 17.125 C13.59585938 16.75375 12.87140625 16.3825 12.125 16 C11.40570313 15.62875 10.68640625 15.2575 9.9453125 14.875 C8.05151023 13.86326254 8.05151023 13.86326254 6 14 C6 12.68 6 11.36 6 10 C5.195625 9.195625 4.39125 8.39125 3.5625 7.5625 C0.87567712 4.87567712 0.31668308 3.69463588 0 0 Z " fill="#E30404" transform="translate(88,88)"/>
<path d="M0 0 C6.00098657 2.64749407 9.15902066 8.31804131 12 14 C12.12432618 16.84504568 12.1851641 19.65487152 12.1875 22.5 C12.19974609 23.28503906 12.21199219 24.07007812 12.22460938 24.87890625 C12.22986254 26.92063726 12.1222018 28.96192251 12 31 C11.34 31.66 10.68 32.32 10 33 C9.67 29.37 9.34 25.74 9 22 C8.34 22 7.68 22 7 22 C6.67 19.69 6.34 17.38 6 15 C6.99 15.33 7.98 15.66 9 16 C8.505 15.649375 8.01 15.29875 7.5 14.9375 C5.26936034 12.05625711 5.80019379 9.52990974 6 6 C5.01 6 4.02 6 3 6 C3 5.34 3 4.68 3 4 C2.34 4 1.68 4 1 4 C0.67 2.68 0.34 1.36 0 0 Z " fill="#AEDE65" transform="translate(188,90)"/>
<path d="M0 0 C2 2 2 2 2.25 4.4375 C2 7 2 7 0 10 C-2.1640625 10.29296875 -2.1640625 10.29296875 -4.625 10.1875 C-5.44226563 10.16042969 -6.25953125 10.13335937 -7.1015625 10.10546875 C-7.72804688 10.07066406 -8.35453125 10.03585938 -9 10 C-9 7.36 -9 4.72 -9 2 C-5.88401212 0.15348866 -3.61754103 -0.38079379 0 0 Z " fill="#F6FBFA" transform="translate(116,108)"/>
<path d="M0 0 C0.66 0.33 1.32 0.66 2 1 C0.76516408 7.3285341 -2.97814416 10.38826672 -8 14 C-11.32818903 15.99827743 -13.97371304 17.10917946 -17.9375 16.6875 C-18.618125 16.460625 -19.29875 16.23375 -20 16 C-19.38125 15.7525 -18.7625 15.505 -18.125 15.25 C-15.61104784 13.77120461 -15.1465949 12.62078835 -14 10 C-12 8 -12 8 -8.375 7.875 C-6.704375 7.936875 -6.704375 7.936875 -5 8 C-5 7.34 -5 6.68 -5 6 C-4.01 6 -3.02 6 -2 6 C-2 4.68 -2 3.36 -2 2 C-1.34 2 -0.68 2 0 2 C0 1.34 0 0.68 0 0 Z " fill="#AEDD66" transform="translate(196,122)"/>
<path d="M0 0 C2 2 2 2 2.24291992 5.1328125 C2.23881104 6.45023438 2.23470215 7.76765625 2.23046875 9.125 C2.23001053 9.8277002 2.22955231 10.53040039 2.2290802 11.25439453 C2.22605825 12.74057706 2.21817359 14.22675644 2.20581055 15.71289062 C2.18757206 17.99099925 2.18530075 20.26870104 2.18554688 22.546875 C2.14752629 33.70494741 2.14752629 33.70494741 1 36 C2.051875 36.268125 3.10375 36.53625 4.1875 36.8125 C7.59348341 37.87338008 10.04643447 39.05908551 13 41 C13.66 41.33 14.32 41.66 15 42 C15.309375 42.99 15.61875 43.98 15.9375 45 C16.4634375 46.485 16.4634375 46.485 17 48 C18.485 48.495 18.485 48.495 20 49 C20 49.99 20 50.98 20 52 C19.34 52 18.68 52 18 52 C16.703125 50.390625 16.703125 50.390625 15.25 48.25 C10.98397127 42.38938772 6.91867708 40.30622569 0 38 C0 25.46 0 12.92 0 0 Z " fill="#F53111" transform="translate(86,49)"/>
<path d="M0 0 C0.99 0.66 1.98 1.32 3 2 C2.15236084 2.029729 2.15236084 2.029729 1.28759766 2.06005859 C-1.26707997 2.15518236 -3.82092541 2.26491058 -6.375 2.375 C-7.26445313 2.4059375 -8.15390625 2.436875 -9.0703125 2.46875 C-9.92109375 2.50742187 -10.771875 2.54609375 -11.6484375 2.5859375 C-12.82672119 2.63306885 -12.82672119 2.63306885 -14.02880859 2.68115234 C-16.23002939 2.8399465 -16.23002939 2.8399465 -18 5 C-18 5.33 -18 5.66 -18 6 C-18.969375 6.28875 -19.93875 6.5775 -20.9375 6.875 C-24.10664203 7.64214682 -24.10664203 7.64214682 -25 10 C-26.64363134 10.72159424 -28.31050386 11.39351421 -30 12 C-28.05015732 6.73542476 -23.63636363 4.00967118 -19.0625 1.1875 C-13.30507317 -1.09987499 -6.05685744 -0.54739205 0 0 Z " fill="#EFBC4C" transform="translate(120,25)"/>
<path d="M0 0 C0 0.66 0 1.32 0 2 C-0.99 2.33 -1.98 2.66 -3 3 C-3.33 3.99 -3.66 4.98 -4 6 C-3.34 6.33 -2.68 6.66 -2 7 C-2.61875 7.04125 -3.2375 7.0825 -3.875 7.125 C-4.57625 7.41375 -5.2775 7.7025 -6 8 C-7.3045656 10.99615946 -7.3045656 10.99615946 -8 14 C-8.99 14 -9.98 14 -11 14 C-11 14.66 -11 15.32 -11 16 C-12.32 16.33 -13.64 16.66 -15 17 C-14.42415568 14.61435923 -13.77772405 12.33317216 -13 10 C-12.34 10 -11.68 10 -11 10 C-10.87431641 9.11054687 -10.87431641 9.11054687 -10.74609375 8.203125 C-9.7816209 5.35515282 -8.48602461 4.48547151 -6.0625 2.75 C-5.35222656 2.22921875 -4.64195312 1.7084375 -3.91015625 1.171875 C-2 0 -2 0 0 0 Z " fill="#998704" transform="translate(134,88)"/>
<path d="M0 0 C1.875 0.625 1.875 0.625 4 2 C7.30641107 9.90058224 7.20330917 19.29069627 4.5 27.375 C3.7575 29.169375 3.7575 29.169375 3 31 C3.99 31.33 4.98 31.66 6 32 C5.67 32.99 5.34 33.98 5 35 C4.67 34.67 4.34 34.34 4 34 C1.66702567 33.95907063 -0.66705225 33.95758277 -3 34 C-2.49339844 33.27296875 -2.49339844 33.27296875 -1.9765625 32.53125 C2.66749999 25.55173412 5.11128643 18.46538779 4 10 C2.99068598 6.51663576 1.62326062 3.24652125 0 0 Z " fill="#F79119" transform="translate(112,75)"/>
<path d="M0 0 C6.04942966 4.74144487 6.04942966 4.74144487 8 7 C8 7.66 8 8.32 8 9 C8.5775 9.20625 9.155 9.4125 9.75 9.625 C13.88547197 12.15223287 15.60550484 15.93486307 17.25 20.375 C18.08764385 24.42361192 18.14460391 27.87878863 18 32 C17.67 32 17.34 32 17 32 C14.88838269 22.58997722 14.88838269 22.58997722 14 18 C13.01 18.33 12.02 18.66 11 19 C11.33 17.35 11.66 15.7 12 14 C11.34 14 10.68 14 10 14 C9.67 13.01 9.34 12.02 9 11 C8.34 10.67 7.68 10.34 7 10 C7 9.34 7 8.68 7 8 C6.21625 7.731875 5.4325 7.46375 4.625 7.1875 C2 6 2 6 0 3 C0 2.01 0 1.02 0 0 Z " fill="#F14503" transform="translate(99,61)"/>
<path d="M0 0 C1.32 0 2.64 0 4 0 C5.40568804 1.94982535 6.7295036 3.95950578 8 6 C10.45436421 8.64316146 12.89582011 10.91949736 15.75 13.125 C18 15 18 15 19 18 C20.2375 18.433125 20.2375 18.433125 21.5 18.875 C22.7375 19.431875 22.7375 19.431875 24 20 C24.8125 22.625 24.8125 22.625 25 25 C20.74966265 22.87483132 18.24511935 20.16671919 15.33203125 16.5234375 C14.05635999 14.87027626 14.05635999 14.87027626 12 14 C12 13.34 12 12.68 12 12 C11.01 11.67 10.02 11.34 9 11 C7.73495563 9.54033341 6.47385906 8.0757587 5.2734375 6.5625 C3.89320499 4.8150402 3.89320499 4.8150402 1.6875 2.6875 C1.130625 2.130625 0.57375 1.57375 0 1 C0 0.67 0 0.34 0 0 Z " fill="#8BDD5C" transform="translate(151,112)"/>
<path d="M0 0 C0.680625 0.70125 1.36125 1.4025 2.0625 2.125 C4.15701615 4.23145071 6.34450793 6.15966904 8.625 8.0625 C11.13292882 10.17702822 13.1907019 12.23283819 15 15 C12.42215154 17.64752004 10.08351902 19.94432065 7 22 C6.34 21.34 5.68 20.68 5 20 C5.66 20 6.32 20 7 20 C7 19.34 7 18.68 7 18 C7.7734375 17.319375 7.7734375 17.319375 8.5625 16.625 C9.036875 16.08875 9.51125 15.5525 10 15 C9.77242269 12.83700789 9.77242269 12.83700789 9 11 C8.34 11 7.68 11 7 11 C3 6.52941176 3 6.52941176 3 4 C1.68 3.67 0.36 3.34 -1 3 C-0.67 2.01 -0.34 1.02 0 0 Z " fill="#E06E9F" transform="translate(60,98)"/>
<path d="M0 0 C1.64706553 0.64268437 3.29262175 1.28923802 4.9375 1.9375 C6.31228516 2.47697266 6.31228516 2.47697266 7.71484375 3.02734375 C10 4 10 4 11 5 C11.08858646 7.73894085 11.11523479 10.4525327 11.09765625 13.19140625 C11.0962413 14.01124496 11.09482635 14.83108368 11.09336853 15.67576599 C11.08775289 18.30471382 11.07519779 20.93357773 11.0625 23.5625 C11.05748701 25.34049357 11.05292376 27.11848846 11.04882812 28.89648438 C11.03777839 33.26435545 11.02050331 37.63216348 11 42 C10.67 42 10.34 42 10 42 C9.97494385 41.05157227 9.9498877 40.10314453 9.92407227 39.12597656 C9.8288116 35.59981968 9.72958559 32.07382041 9.62768555 28.54785156 C9.58443293 27.02315614 9.54275115 25.49841531 9.50268555 23.97363281 C9.44474797 21.77915778 9.38112205 19.58490932 9.31640625 17.390625 C9.29969376 16.7113092 9.28298126 16.03199341 9.26576233 15.33209229 C9.14238676 10.57854142 9.14238676 10.57854142 8 6 C6.16016576 4.65768558 6.16016576 4.65768558 3.9375 3.75 C3.20402344 3.41484375 2.47054687 3.0796875 1.71484375 2.734375 C1.14894531 2.49203125 0.58304688 2.2496875 0 2 C0 1.34 0 0.68 0 0 Z " fill="#1C7B82" transform="translate(128,134)"/>
<path d="M0 0 C6.53953402 2.11573159 11.0735078 6.09464748 14.25390625 12.0859375 C15.52820591 15.35508322 15.75519733 18.51156197 16 22 C13.9656541 20.58480285 13.09589607 19.45017877 12.578125 17.01953125 C12.33726048 15.01823046 12.16467259 13.0090056 12 11 C10.35 10.67 8.7 10.34 7 10 C7 8.68 7 7.36 7 6 C6.34 6 5.68 6 5 6 C4.67 5.34 4.34 4.68 4 4 C1.98330173 2.86649466 1.98330173 2.86649466 0 2 C0 1.34 0 0.68 0 0 Z " fill="#F1BC48" transform="translate(123,27)"/>
<path d="M0 0 C3.2272125 0 6.41788703 0.08161221 9.640625 0.21875 C10.71054688 0.26386719 11.78046875 0.30898437 12.8828125 0.35546875 C13.99398437 0.40316406 15.10515625 0.45085937 16.25 0.5 C17.93996094 0.57154297 17.93996094 0.57154297 19.6640625 0.64453125 C22.44274103 0.76227187 25.2213842 0.88078965 28 1 C28 1.66 28 2.32 28 3 C27.0821875 2.96519531 26.164375 2.93039063 25.21875 2.89453125 C17.1101421 2.58090878 17.1101421 2.58090878 9.375 4.625 C6 6 6 6 3.625 5.4375 C1.76216079 3.78960377 0.91883339 2.29708349 0 0 Z " fill="#D31428" transform="translate(70,107)"/>
<path d="M0 0 C0.99 0.33 1.98 0.66 3 1 C2.34 2.98 1.68 4.96 1 7 C-11.54 7 -24.08 7 -37 7 C-36.34 6.01 -35.68 5.02 -35 4 C-32.375 3.8125 -32.375 3.8125 -30 4 C-30 4.66 -30 5.32 -30 6 C-20.1 6 -10.2 6 0 6 C0 4.02 0 2.04 0 0 Z " fill="#903474" transform="translate(86,132)"/>
<path d="M0 0 C0 0.33 0 0.66 0 1 C-2.97 1 -5.94 1 -9 1 C-9 0.34 -9 -0.32 -9 -1 C-13.95 -1 -18.9 -1 -24 -1 C-16.68669672 -5.87553552 -7.27935906 -4.40592785 0 0 Z " fill="#EE9E9B" transform="translate(83,46)"/>
<path d="M0 0 C-0.33 0.99 -0.66 1.98 -1 3 C2.42232972 4.14077657 5.08673217 4.09815117 8.6875 4.0625 C9.86699219 4.05347656 11.04648438 4.04445313 12.26171875 4.03515625 C13.16535156 4.02355469 14.06898437 4.01195313 15 4 C11.71234073 7.28765927 7.49987818 6.96159421 3 7 C-0.84524458 6.4780211 -4.51693002 5.74153499 -8 4 C-8 3.34 -8 2.68 -8 2 C-4.77208445 -0.1519437 -3.71599191 -0.20086443 0 0 Z " fill="#9C0520" transform="translate(85,110)"/>
<path d="M0 0 C0.33 0 0.66 0 1 0 C1 1.65 1 3.3 1 5 C-1.97 5.66 -4.94 6.32 -8 7 C-8 7.66 -8 8.32 -8 9 C-11.46153846 12 -11.46153846 12 -14 12 C-14.66 13.98 -15.32 15.96 -16 18 C-16.91194894 15.53773786 -17.01951337 14.09756687 -16.5 11.5 C-14.03185949 7.38643248 -10.22333863 6.11166932 -6 4 C-4.00039988 3.960008 -1.99952758 3.95653201 0 4 C0 2.68 0 1.36 0 0 Z " fill="#8E3575" transform="translate(106,114)"/>
<path d="M0 0 C0.97066406 0.49113281 1.94132812 0.98226562 2.94140625 1.48828125 C7.30985653 3.36047423 11.24864746 3.34419687 15.9375 3.1875 C17.10635742 3.16719727 17.10635742 3.16719727 18.29882812 3.14648438 C20.19952404 3.11150224 22.09985834 3.05770959 24 3 C20.24955515 5.50029657 18.21957824 5.23646948 13.75 5.1875 C12.46609375 5.18105469 11.1821875 5.17460938 9.859375 5.16796875 C6.14723029 5.0064078 2.66105522 4.59278744 -1 4 C-0.34 4.33 0.32 4.66 1 5 C1 5.66 1 6.32 1 7 C2.32 6.34 3.64 5.68 5 5 C5 6.32 5 7.64 5 9 C2.36 8.34 -0.28 7.68 -3 7 C-2.25 2.25 -2.25 2.25 0 0 Z " fill="#109C38" transform="translate(121,112)"/>
<path d="M0 0 C0.81766395 2.45299186 1.02627816 3.87189398 0.5 6.4375 C-0.07078248 9.36276023 0.40480007 11.09013366 1 14 C1.09112067 17.0019198 1.05887073 19.9975929 1 23 C0.67 23 0.34 23 0 23 C-1.08318169 17.6787385 -2.152874 12.36513131 -3 7 C-3.66 7 -4.32 7 -5 7 C-5.33 5.68 -5.66 4.36 -6 3 C-4.35 3 -2.7 3 -1 3 C-0.67 2.01 -0.34 1.02 0 0 Z " fill="#30769A" transform="translate(117,115)"/>
<path d="M0 0 C1.98 0.495 1.98 0.495 4 1 C4 1.66 4 2.32 4 3 C9.40892978 2.6008945 13.95949832 2.07550069 19 0 C21.1328125 0.4453125 21.1328125 0.4453125 23 1 C16.42726102 3.75195053 10.21434471 6.22858148 3 5 C0.74609375 3.9765625 0.74609375 3.9765625 -1 3 C-0.67 2.01 -0.34 1.02 0 0 Z " fill="#B99FC9" transform="translate(62,178)"/>
<path d="M0 0 C0 0.99 0 1.98 0 3 C-1.2065625 3.37125 -1.2065625 3.37125 -2.4375 3.75 C-5.11038041 4.68899331 -5.11038041 4.68899331 -5.64038086 6.72558594 C-6.05945572 9.37602818 -6.21653995 11.95850157 -6.31640625 14.640625 C-6.35830078 15.71054688 -6.40019531 16.78046875 -6.44335938 17.8828125 C-6.48267578 18.99398437 -6.52199219 20.10515625 -6.5625 21.25 C-6.60568359 22.37664062 -6.64886719 23.50328125 -6.69335938 24.6640625 C-6.79932015 27.44258954 -6.90139142 30.22120391 -7 33 C-7.33 33 -7.66 33 -8 33 C-8 23.43 -8 13.86 -8 4 C-5.36 2.68 -2.72 1.36 0 0 Z " fill="#644F9A" transform="translate(94,135)"/>
<path d="M0 0 C0.33 0.66 0.66 1.32 1 2 C-1.39121114 8.47033604 -5.36816906 10.55507321 -11.1875 13.75 C-14 15 -14 15 -17 15 C-16.67 15.99 -16.34 16.98 -16 18 C-16.99 18 -17.98 18 -19 18 C-19 16.68 -19 15.36 -19 14 C-16.03 13.34 -13.06 12.68 -10 12 C-10 11.34 -10 10.68 -10 10 C-8.3203125 8.37890625 -8.3203125 8.37890625 -6.125 6.5625 C-3.53806278 4.41599116 -1.88815626 2.83223438 0 0 Z " fill="#94B710" transform="translate(137,92)"/>
<path d="M0 0 C1 2 1 2 0.44140625 3.9453125 C0.15136719 4.66460937 -0.13867188 5.38390625 -0.4375 6.125 C-0.72496094 6.84945312 -1.01242188 7.57390625 -1.30859375 8.3203125 C-1.53675781 8.87460938 -1.76492187 9.42890625 -2 10 C-2.66 10 -3.32 10 -4 10 C-3.67 10.99 -3.34 11.98 -3 13 C-4.65 14.65 -6.3 16.3 -8 18 C-8.99 17.67 -9.98 17.34 -11 17 C-10.62488281 16.52691406 -10.24976562 16.05382812 -9.86328125 15.56640625 C-6.03685595 10.62193225 -2.89656376 5.53679445 0 0 Z " fill="#654D98" transform="translate(107,118)"/>
<path d="M0 0 C0.66 0 1.32 0 2 0 C2.33 3.3 2.66 6.6 3 10 C0.1875 10.625 0.1875 10.625 -3 11 C-3.99 10.34 -4.98 9.68 -6 9 C-4.68 9 -3.36 9 -2 9 C-2 8.01 -2 7.02 -2 6 C-3.32 6 -4.64 6 -6 6 C-6 5.34 -6 4.68 -6 4 C-3.69 4.33 -1.38 4.66 1 5 C0.67 3.35 0.34 1.7 0 0 Z " fill="#E20A0F" transform="translate(104,101)"/>
<path d="M0 0 C7.29031024 -0.2494783 13.90673679 0.27669093 21 2 C20.67 2.99 20.34 3.98 20 5 C19.13375 4.690625 18.2675 4.38125 17.375 4.0625 C11.42986735 2.32696438 5.14860618 2.32405969 -1 2 C-0.67 1.34 -0.34 0.68 0 0 Z " fill="#74C317" transform="translate(129,107)"/>
<path d="M0 0 C5.45889611 2.40833652 8.20209628 6.93300598 11 12 C11 12.66 11 13.32 11 14 C9.35 13.67 7.7 13.34 6 13 C6 10.69 6 8.38 6 6 C5.01 6 4.02 6 3 6 C3 5.34 3 4.68 3 4 C2.34 4 1.68 4 1 4 C0.67 2.68 0.34 1.36 0 0 Z " fill="#B3DC70" transform="translate(188,90)"/>
<path d="M0 0 C2.90713811 0.34088124 3.89754103 0.88941928 5.921875 3.07421875 C6.52515625 3.93660156 7.1284375 4.79898438 7.75 5.6875 C8.67039063 6.96173828 8.67039063 6.96173828 9.609375 8.26171875 C11.21071595 11.41492101 11.26566464 13.51059718 11 17 C11.66 17.33 12.32 17.66 13 18 C12.01 18 11.02 18 10 18 C9.01 14.7 8.02 11.4 7 8 C6.34 8 5.68 8 5 8 C0 2.52380952 0 2.52380952 0 0 Z " fill="#139A4E" transform="translate(128,121)"/>
<path d="M0 0 C0.94875 0.04125 1.8975 0.0825 2.875 0.125 C2.875 0.455 2.875 0.785 2.875 1.125 C7.165 1.455 11.455 1.785 15.875 2.125 C15.875 2.455 15.875 2.785 15.875 3.125 C8.63042624 4.99456742 1.889923 4.51305889 -5.125 2.125 C-3.125 0.125 -3.125 0.125 0 0 Z " fill="#6ECBAB" transform="translate(149.125,178.875)"/>
<path d="M0 0 C0.99 0 1.98 0 3 0 C3 0.66 3 1.32 3 2 C2.34 2 1.68 2 1 2 C0.87625 2.556875 0.7525 3.11375 0.625 3.6875 C-0.05976855 6.22114364 -0.99133763 8.57921032 -2 11 C-3.32 10.67 -4.64 10.34 -6 10 C-5.1875 7.0625 -5.1875 7.0625 -4 4 C-3.01 3.67 -2.02 3.34 -1 3 C-0.67 2.01 -0.34 1.02 0 0 Z " fill="#DEA30C" transform="translate(120,96)"/>
<path d="M0 0 C-2.36713939 2.74089824 -4.50601646 4.02493482 -8 5 C-11.3125 4.625 -11.3125 4.625 -14 4 C-5.38613861 -1.74257426 -5.38613861 -1.74257426 0 0 Z " fill="#89B5D9" transform="translate(128,195)"/>
<path d="M0 0 C0.33 0 0.66 0 1 0 C1.42691034 8.44333791 1.63421641 14.75903687 -3 22 C-3.33 22 -3.66 22 -4 22 C-4.24042276 17.91281305 -3.42258812 14.82320557 -2 11 C-1.34 11 -0.68 11 0 11 C0 7.37 0 3.74 0 0 Z " fill="#7DCEB1" transform="translate(182,149)"/>
<path d="M0 0 C1.18722656 0.00386719 2.37445313 0.00773437 3.59765625 0.01171875 C6.79354527 0.29953566 9.05738582 0.94594299 11.9375 2.3125 C8.9375 3.3125 8.9375 3.3125 5.9375 2.3125 C4.10693607 2.19395444 2.27185694 2.13732767 0.4375 2.125 C-0.5215625 2.11082031 -1.480625 2.09664063 -2.46875 2.08203125 C-5.29996139 2.12494889 -5.29996139 2.12494889 -8.0625 4.3125 C-9.0525 4.6425 -10.0425 4.9725 -11.0625 5.3125 C-11.7225 4.6525 -12.3825 3.9925 -13.0625 3.3125 C-8.51416026 0.68071258 -5.23952639 -0.07411735 0 0 Z " fill="#198A02" transform="translate(135.0625,108.6875)"/>
<path d="M0 0 C0.33 0.66 0.66 1.32 1 2 C0.319375 2.66 -0.36125 3.32 -1.0625 4 C-4.56725347 7.49468234 -7.77221788 11.25130779 -11 15 C-11.99 14.67 -12.98 14.34 -14 14 C-11.05842741 10.04019075 -7.82023259 7.10393898 -4 4 C-2.64900897 2.68456137 -1.30794331 1.35824882 0 0 Z " fill="#A1DA3E" transform="translate(171,92)"/>
<path d="M0 0 C5 7.5 5 7.5 10 15 C5.32307692 13.52307692 5.32307692 13.52307692 3.6875 10.875 C3.460625 10.25625 3.23375 9.6375 3 9 C2.34 9 1.68 9 1 9 C0.67 6.03 0.34 3.06 0 0 Z " fill="#208081" transform="translate(118,119)"/>
<path d="M0 0 C-0.33 2.31 -0.66 4.62 -1 7 C-3.64 6.67 -6.28 6.34 -9 6 C-9 5.34 -9 4.68 -9 4 C-2.25 0 -2.25 0 0 0 Z " fill="#AE3769" transform="translate(107,111)"/>
<path d="M0 0 C-1.51671964 4.55015893 -5.16891053 6.50057264 -9 9 C-9.33 8.34 -9.66 7.68 -10 7 C-9.34 7 -8.68 7 -8 7 C-7.896875 6.401875 -7.79375 5.80375 -7.6875 5.1875 C-6.26754515 0.66946183 -4.70173848 0 0 0 Z " fill="#6CCEAC" transform="translate(178,171)"/>
<path d="M0 0 C0.66 0.33 1.32 0.66 2 1 C0.68206814 6.66710699 -1.48709197 8.66437233 -6 12 C-5.67 10.02 -5.34 8.04 -5 6 C-4.01 6 -3.02 6 -2 6 C-2 4.68 -2 3.36 -2 2 C-1.34 2 -0.68 2 0 2 C0 1.34 0 0.68 0 0 Z " fill="#BAE17C" transform="translate(196,122)"/>
<path d="M0 0 C0 0.99 0 1.98 0 3 C-0.61488281 3.25394531 -1.22976562 3.50789063 -1.86328125 3.76953125 C-2.67152344 4.11371094 -3.47976562 4.45789063 -4.3125 4.8125 C-5.11300781 5.14894531 -5.91351563 5.48539062 -6.73828125 5.83203125 C-8.97429421 6.98672534 -10.26214385 8.22137304 -12 10 C-12.66 10 -13.32 10 -14 10 C-14.33 10.66 -14.66 11.32 -15 12 C-14.9375 9.75 -14.9375 9.75 -14 7 C-9.60252106 4.00971432 -4.91220047 2.00497979 0 0 Z " fill="#D5A410" transform="translate(138,84)"/>
<path d="M0 0 C2.475 0.495 2.475 0.495 5 1 C5 1.66 5 2.32 5 3 C5.66 3 6.32 3 7 3 C7.33 4.32 7.66 5.64 8 7 C8.66 7 9.32 7 10 7 C10.66 8.65 11.32 10.3 12 12 C6.84075403 9.49854741 3.46633474 5.45528903 0 1 C0 0.67 0 0.34 0 0 Z " fill="#D70F28" transform="translate(49,86)"/>
<path d="M0 0 C1.231394 2.46278801 1.07159196 4.2795055 1 7 C4.465 6.505 4.465 6.505 8 6 C8.33 4.35 8.66 2.7 9 1 C9.33 1 9.66 1 10 1 C10.20086443 4.71599191 10.1519437 5.77208445 8 9 C5.8359375 9.29296875 5.8359375 9.29296875 3.375 9.1875 C2.55773437 9.16042969 1.74046875 9.13335937 0.8984375 9.10546875 C0.27195312 9.07066406 -0.35453125 9.03585938 -1 9 C-1.09765625 2.84765625 -1.09765625 2.84765625 -1 1 C-0.67 0.67 -0.34 0.34 0 0 Z " fill="#D3CBD1" transform="translate(108,109)"/>
<path d="M0 0 C0 0.99 0 1.98 0 3 C-0.99 3 -1.98 3 -3 3 C-2.34 4.65 -1.68 6.3 -1 8 C-2.65 7.67 -4.3 7.34 -6 7 C-6 5.35 -6 3.7 -6 2 C-2.25 0 -2.25 0 0 0 Z " fill="#F9F5F8" transform="translate(114,109)"/>
<path d="M0 0 C0.680625 0.70125 1.36125 1.4025 2.0625 2.125 C5.20780513 5.27934337 8.5888386 8.13934304 12 11 C11.01 11.33 10.02 11.66 9 12 C4.125 7.375 4.125 7.375 3 4 C0.98491642 3.26676204 0.98491642 3.26676204 -1 3 C-0.67 2.01 -0.34 1.02 0 0 Z " fill="#EE6487" transform="translate(60,98)"/>
<path d="M0 0 C0.99 0.495 0.99 0.495 2 1 C2 1.66 2 2.32 2 3 C2.5775 3.226875 3.155 3.45375 3.75 3.6875 C6.57785592 5.33708262 8.04782769 7.39710359 10 10 C10.66 10.66 11.32 11.32 12 12 C6.90479232 11.43386581 4.28100506 7.54604059 1.1875 3.8125 C0 2 0 2 0 0 Z " fill="#ED4800" transform="translate(87,49)"/>
<path d="M0 0 C5.19578896 1.36080187 8.13611036 3.41210248 12 7 C12 7.33 12 7.66 12 8 C10.35 8 8.7 8 7 8 C7 6.68 7 5.36 7 4 C5.68 4.33 4.36 4.66 3 5 C2.01 3.35 1.02 1.7 0 0 Z " fill="#EFEE4B" transform="translate(164,44)"/>
<path d="M0 0 C-0.33 0.99 -0.66 1.98 -1 3 C-4.4375 4.125 -4.4375 4.125 -8 5 C-8.99 5.495 -8.99 5.495 -10 6 C-10 4.35 -10 2.7 -10 1 C-6.52674819 -0.1577506 -3.63932552 -0.06866652 0 0 Z " fill="#A32D66" transform="translate(98,116)"/>
<path d="M0 0 C0.66 0.33 1.32 0.66 2 1 C1.67 1.66 1.34 2.32 1 3 C5.455 4.98 5.455 4.98 10 7 C10 7.33 10 7.66 10 8 C6.7 7.67 3.4 7.34 0 7 C-1.125 2.25 -1.125 2.25 0 0 Z " fill="#C4E479" transform="translate(178,82)"/>
<path d="M0 0 C0.598125 0.20625 1.19625 0.4125 1.8125 0.625 C1.956875 1.3675 2.10125 2.11 2.25 2.875 C2.71437492 5.14527739 3.23113569 7.38259479 3.8125 9.625 C1.77130212 8.00905168 -0.22822937 6.3393618 -2.1875 4.625 C-2.1875 3.965 -2.1875 3.305 -2.1875 2.625 C-3.1775 2.295 -4.1675 1.965 -5.1875 1.625 C-2.1875 -0.375 -2.1875 -0.375 0 0 Z " fill="#FD9F14" transform="translate(109.1875,65.375)"/>
<path d="M0 0 C0.66 0 1.32 0 2 0 C2 2.64 2 5.28 2 8 C1.34 8 0.68 8 0 8 C-0.33 9.98 -0.66 11.96 -1 14 C-1.33 13.34 -1.66 12.68 -2 12 C-2.66 11.67 -3.32 11.34 -4 11 C-3.34 11 -2.68 11 -2 11 C-1.34 7.37 -0.68 3.74 0 0 Z " fill="#2C7198" transform="translate(116,138)"/>
<path d="M0 0 C1.24546405 2.49092811 0.7767578 3.41080733 0 6 C0.99 6.33 1.98 6.66 3 7 C2.67 7.99 2.34 8.98 2 10 C1.67 9.67 1.34 9.34 1 9 C-1.33297433 8.95907063 -3.66705225 8.95758277 -6 9 C-4.02 6.03 -2.04 3.06 0 0 Z " fill="#F0B84C" transform="translate(115,100)"/>
<path d="M0 0 C0.66 0.33 1.32 0.66 2 1 C1.79375 1.515625 1.5875 2.03125 1.375 2.5625 C0.84112974 6.03265671 1.92323239 8.70635791 3 12 C2.01 12.495 2.01 12.495 1 13 C-0.32 9.37 -1.64 5.74 -3 2 C-2.01 1.34 -1.02 0.68 0 0 Z " fill="#8BB1DB" transform="translate(88,175)"/>
<path d="M0 0 C-0.20625 0.61875 -0.4125 1.2375 -0.625 1.875 C-0.74875 2.57625 -0.8725 3.2775 -1 4 C-0.34 4.66 0.32 5.32 1 6 C0.01 6.495 0.01 6.495 -1 7 C-2.98 5.35 -4.96 3.7 -7 2 C-4.35261084 0.5393715 -3.10551666 0 0 0 Z " fill="#066A47" transform="translate(132,129)"/>
<path d="M0 0 C3.50935186 0 6.56484998 0.37542727 10 1 C8.25 3.0625 8.25 3.0625 6 5 C3.875 5 3.875 5 2 4 C0.75 1.9375 0.75 1.9375 0 0 Z " fill="#D90A1F" transform="translate(70,107)"/>
<path d="M0 0 C3.16115776 1.36983503 3.9927092 1.9890638 6 5 C5 6 5 6 2.4375 6.0625 C1.2309375 6.0315625 1.2309375 6.0315625 0 6 C0 4.02 0 2.04 0 0 Z " fill="#E86F96" transform="translate(48,87)"/>
<path d="M0 0 C3.9606826 2.64045506 4.03583918 4.40169457 5 9 C5.14573593 11.69376413 5.0947856 14.29861027 5 17 C4.67 17 4.34 17 4 17 C3.81824219 16.11248047 3.81824219 16.11248047 3.6328125 15.20703125 C2.72744944 10.93789621 1.66507747 7.04375957 0 3 C0 2.01 0 1.02 0 0 Z " fill="#DA4902" transform="translate(112,76)"/>
<path d="M0 0 C0.66 0 1.32 0 2 0 C1.56802365 4.7517398 0.67230705 6.92000054 -3 10 C-2.69201674 8.51988629 -2.378482 7.04092675 -2.0625 5.5625 C-1.88847656 4.73878906 -1.71445313 3.91507813 -1.53515625 3.06640625 C-1 1 -1 1 0 0 Z " fill="#85B5D3" transform="translate(136,180)"/>
<path d="M0 0 C1.546875 0.7115625 1.546875 0.7115625 3.125 1.4375 C6.38534162 2.84522388 9.46051083 3.56835498 13 4 C13 4.33 13 4.66 13 5 C3.58997722 5.3690205 3.58997722 5.3690205 -1 3 C-0.67 2.01 -0.34 1.02 0 0 Z " fill="#AF3161" transform="translate(75,112)"/>
<path d="M0 0 C1.98 0.495 1.98 0.495 4 1 C4.59732819 3.76264289 5 6.16032769 5 9 C3.02 7.02 1.04 5.04 -1 3 C-0.67 2.01 -0.34 1.02 0 0 Z " fill="#FEA610" transform="translate(91,49)"/>
<path d="M0 0 C0.33 0.66 0.66 1.32 1 2 C3.52733235 2.65555119 3.52733235 2.65555119 6 3 C6 3.66 6 4.32 6 5 C1.44262737 4.56179109 -1.57653445 4.14958831 -5 1 C-3 0 -3 0 0 0 Z " fill="#8DB8DB" transform="translate(103,195)"/>
<path d="M0 0 C0.66 0 1.32 0 2 0 C2 1.32 2 2.64 2 4 C1.01 4.66 0.02 5.32 -1 6 C-0.67 6.66 -0.34 7.32 0 8 C-1.32 7.34 -2.64 6.68 -4 6 C-2.84826645 3.53199953 -1.95216435 1.95216435 0 0 Z " fill="#F19E9B" transform="translate(52,48)"/>
<path d="M0 0 C0.93423645 3.01031744 1.04449911 3.86650268 0 7 C-0.66 7 -1.32 7 -2 7 C-2.33 6.34 -2.66 5.68 -3 5 C-3.99 5 -4.98 5 -6 5 C-6 4.34 -6 3.68 -6 3 C-4.35 3 -2.7 3 -1 3 C-0.67 2.01 -0.34 1.02 0 0 Z " fill="#5293A9" transform="translate(117,115)"/>
<path d="M0 0 C-3.33333333 1.66666667 -6.66666667 3.33333333 -10 5 C-10 3.35 -10 1.7 -10 0 C-6.26432828 -0.76411467 -3.65188082 -1.07174763 0 0 Z " fill="#7BC433" transform="translate(128,110)"/>
<path d="M0 0 C0.33 0 0.66 0 1 0 C1 2.64 1 5.28 1 8 C-0.32 8 -1.64 8 -3 8 C-3 7.34 -3 6.68 -3 6 C-2.34 5.67 -1.68 5.34 -1 5 C-1.99 4.34 -2.98 3.68 -4 3 C-2.68 2.67 -1.36 2.34 0 2 C0 1.34 0 0.68 0 0 Z " fill="#E18DB3" transform="translate(47,84)"/>
<path d="M0 0 C0 4.35251187 -2.06165511 5.92809398 -5 9 C-7.171875 9.6796875 -7.171875 9.6796875 -9 10 C-8.06409496 8.8944811 -7.12620142 7.79064547 -6.1875 6.6875 C-5.66542969 6.07261719 -5.14335938 5.45773438 -4.60546875 4.82421875 C-3.12827531 3.14575321 -1.59960869 1.56117966 0 0 Z " fill="#7DA1DF" transform="translate(98,165)"/>
<path d="M0 0 C0.33 1.32 0.66 2.64 1 4 C-0.65 5.32 -2.3 6.64 -4 8 C-4.33 6.02 -4.66 4.04 -5 2 C-2.525 2.495 -2.525 2.495 0 3 C0 2.01 0 1.02 0 0 Z " fill="#EE441E" transform="translate(111,102)"/>
<path d="M0 0 C0.66 0 1.32 0 2 0 C2.66 2.97 3.32 5.94 4 9 C1.24338912 6.51015791 -0.60746455 4.79450934 -1 1 C-0.67 0.67 -0.34 0.34 0 0 Z " fill="#E296BB" transform="translate(28,122)"/>
<path d="M0 0 C0.33 1.32 0.66 2.64 1 4 C-1.8125 4.625 -1.8125 4.625 -5 5 C-5.99 4.34 -6.98 3.68 -8 3 C-6.865625 2.690625 -5.73125 2.38125 -4.5625 2.0625 C-1.21224901 1.37075469 -1.21224901 1.37075469 0 0 Z " fill="#D0101D" transform="translate(106,107)"/>
<path d="M0 0 C1 2 1 2 0.44140625 4.1640625 C0.15136719 4.97617187 -0.13867188 5.78828125 -0.4375 6.625 C-0.72496094 7.44226562 -1.01242188 8.25953125 -1.30859375 9.1015625 C-1.53675781 9.72804688 -1.76492187 10.35453125 -2 11 C-2.99 10.67 -3.98 10.34 -5 10 C-4.34 10 -3.68 10 -3 10 C-2.87625 9.0925 -2.7525 8.185 -2.625 7.25 C-2.07890323 4.41029677 -1.42736197 2.47409409 0 0 Z " fill="#F6C66D" transform="translate(89,37)"/>
<path d="M0 0 C1.67542976 0.28604898 3.34385343 0.61781233 5 1 C4.34 2.32 3.68 3.64 3 5 C2.01 5 1.02 5 0 5 C-0.5625 3.0625 -0.5625 3.0625 -1 1 C-0.67 0.67 -0.34 0.34 0 0 Z " fill="#66A9D6" transform="translate(129,185)"/>
<path d="M0 0 C0.99 0 1.98 0 3 0 C2 2 1 4 0 6 C-0.66 6 -1.32 6 -2 6 C-1.125 1.125 -1.125 1.125 0 0 Z " fill="#99E052" transform="translate(180,130)"/>
<path d="M0 0 C0.99 0.33 1.98 0.66 3 1 C1.37660195 2.70884005 -0.29319053 4.37446717 -2 6 C-2.66 6 -3.32 6 -4 6 C-2.25 1.125 -2.25 1.125 0 0 Z " fill="#89BE10" transform="translate(165,95)"/>
<path d="M0 0 C3.26460973 1.80412643 4.88929795 2.83394693 7 6 C5.68 6 4.36 6 3 6 C3 5.34 3 4.68 3 4 C2.34 4 1.68 4 1 4 C0.67 2.68 0.34 1.36 0 0 Z " fill="#BEE282" transform="translate(188,90)"/>
<path d="M0 0 C2 4 2 4 3 7 C2.01 7.99 1.02 8.98 0 10 C0 6.7 0 3.4 0 0 Z " fill="#D37EA2" transform="translate(25,108)"/>
<path d="M0 0 C0.78375 0.04125 1.5675 0.0825 2.375 0.125 C2.705 1.445 3.035 2.765 3.375 4.125 C2.385 4.125 1.395 4.125 0.375 4.125 C0.375 3.135 0.375 2.145 0.375 1.125 C-1.275 1.455 -2.925 1.785 -4.625 2.125 C-2.625 0.125 -2.625 0.125 0 0 Z " fill="#F7FAD8" transform="translate(113.625,107.875)"/>
<path d="M0 0 C1.32 0.33 2.64 0.66 4 1 C4.33 2.32 4.66 3.64 5 5 C5.66 5 6.32 5 7 5 C6.67 5.66 6.34 6.32 6 7 C1.125 3.375 1.125 3.375 0 0 Z " fill="#D7162F" transform="translate(63,100)"/>
</svg>
